<?xml version="1.0" encoding="iso-8859-1"?>
<!-- Uploaded to: SVG Repo, www.svgrepo.com, Generator: SVG Repo Mixer Tools -->
<svg fill="#000000" height="800px" width="800px" version="1.1" id="Layer_1" xmlns="http://www.w3.org/2000/svg" xmlns:xlink="http://www.w3.org/1999/xlink" 
	 viewBox="0 0 512 512" xml:space="preserve">
<g>
	<g>
		<path d="M507.049,191.045c-5.217-9.03-14.049-15.513-24.23-17.784c-2.933-0.654-5.911-0.932-8.871-0.871
			c0.349-7.072-1.303-14.197-4.958-20.523c-6.658-11.525-19.074-18.685-32.402-18.685c-4.084,0-8.083,0.683-11.889,1.968
			c-0.287-5.837-1.934-11.624-4.962-16.865c-6.658-11.525-19.074-18.685-32.402-18.685c-7.611,0-14.952,2.298-21.236,6.647
			l-34.536,22.912c-4.187-1.575-8.717-2.444-13.446-2.444H234.01c-34.227,0-66.406,13.329-90.608,37.531L2.459,305.191
			c-3.279,3.279-3.279,8.595,0,11.872c3.184,3.184,8.606,3.266,11.873,0L155.276,176.12c21.03-21.031,48.992-32.613,78.735-32.613
			h84.105c4.437,0,8.563,1.352,11.992,3.664c0.017,0.011,0.032,0.022,0.049,0.034c5.861,3.907,9.463,10.78,9.463,17.807
			c0,11.858-9.647,21.505-21.505,21.505h-69.403h-27.689c-4.638,0-8.395,3.759-8.395,8.395c0,4.637,3.758,8.395,8.395,8.395h25.396
			L296.728,233l31.316,18.483c0.045,0.026,0.091,0.047,0.134,0.073c7.504,4.399,16.343,6.806,25.05,6.806
			c10.039,0,20.062-3.143,28.303-8.879l81.39-56.638c0.019-0.013,0.039-0.023,0.058-0.037c4.689-3.24,10.625-4.399,16.185-3.16
			c5.691,1.268,10.429,4.747,13.346,9.795c5.309,9.19,2.644,21.139-6.067,27.201c-0.044,0.03-0.087,0.062-0.131,0.093
			l-117.939,85.468c-20.3,11.792-45.427,11.728-65.675-0.196c0,0-71.332-42.039-72.994-43.055
			c-13.541-8.273-27.541-16.828-44.018-0.351L56.19,398.1c-3.279,3.279-3.279,8.595,0,11.872c3.237,3.237,8.638,3.234,11.873,0
			L197.56,280.477c6.646-6.646,9.38-5.753,23.39,2.807c1.738,1.062,73.229,43.196,73.229,43.196
			c25.615,15.082,57.436,15.082,83.047,0c0.228-0.135,0.451-0.28,0.667-0.437l118.214-85.667
			C511.865,229.354,516.674,207.704,507.049,191.045z M375.454,120.19c0.051-0.035,0.103-0.069,0.154-0.104
			c3.473-2.417,7.528-3.694,11.726-3.694c7.35,0,14.195,3.944,17.863,10.294c3.473,6.011,3.665,13.327,0.602,19.481l-53.059,35.201
			c0.085-0.18,0.159-0.367,0.242-0.549c4.615-10.128,4.497-22.251-0.328-32.339c-0.012-0.025-0.023-0.05-0.036-0.076
			c-1.578-3.28-3.615-6.329-6.061-9.042L375.454,120.19z M300.736,215.869l-21.283-12.562h38.663c0.537,0,1.072-0.011,1.605-0.034
			l-18.395,12.204L300.736,215.869z M456.066,177.334c-0.082,0.047-0.156,0.103-0.237,0.15c-0.85,0.496-1.687,1.015-2.5,1.581
			l-81.391,56.639c-10.277,7.151-24.411,7.708-35.214,1.401c-0.048-0.028-0.099-0.051-0.146-0.079l-19.771-11.669l67.078-44.501
			l40.822-27.083c0.052-0.034,0.103-0.069,0.154-0.104c3.473-2.417,7.528-3.694,11.726-3.694c7.35,0,14.195,3.944,17.863,10.294
			C457.47,165.492,458.025,171.709,456.066,177.334z"/>
	</g>
</g>
</svg>