<?xml version="1.0" standalone="no"?>
<!DOCTYPE svg PUBLIC "-//W3C//DTD SVG 20010904//EN"
 "http://www.w3.org/TR/2001/REC-SVG-20010904/DTD/svg10.dtd">
<svg version="1.0" xmlns="http://www.w3.org/2000/svg"
 width="500.000000pt" height="500.000000pt" viewBox="0 0 500.000000 500.000000"
 preserveAspectRatio="xMidYMid meet">

<g transform="translate(0.000000,500.000000) scale(0.100000,-0.100000)"
fill="#000000" stroke="none">
<path d="M2320 4994 c-19 -2 -78 -9 -130 -15 -962 -110 -1798 -815 -2083
-1759 -74 -245 -102 -439 -102 -720 0 -281 28 -475 102 -720 242 -800 873
-1431 1673 -1673 245 -74 439 -102 720 -102 281 0 475 28 720 102 800 242
1431 873 1673 1673 74 245 102 439 102 720 0 119 -6 255 -13 305 -81 578 -321
1067 -716 1460 -400 397 -880 635 -1446 715 -78 11 -439 21 -500 14z m545
-223 c849 -144 1529 -715 1809 -1520 88 -252 121 -456 121 -751 0 -241 -12
-344 -62 -549 -200 -826 -858 -1484 -1684 -1684 -205 -50 -308 -62 -549 -62
-241 0 -344 12 -549 62 -826 200 -1484 858 -1684 1684 -50 205 -62 308 -62
549 0 241 12 344 62 549 218 902 972 1589 1893 1725 159 24 170 24 385 21 142
-3 235 -10 320 -24z"/>
<path d="M1745 3600 l-610 -610 65 -67 c36 -38 83 -87 104 -110 l40 -43 -65
-67 c-117 -122 -184 -243 -220 -400 -30 -131 -24 -310 16 -431 l26 -84 -52
-250 -52 -249 21 -22 22 -21 217 62 c120 34 224 62 232 62 8 0 42 -11 77 -25
133 -53 323 -70 462 -41 l62 13 118 -166 c65 -91 122 -172 126 -178 4 -7 13
-47 22 -89 17 -89 26 -104 65 -104 26 0 1670 287 1675 293 2 1 -24 155 -57
342 -49 275 -58 343 -49 361 10 17 1 74 -50 313 l-61 292 25 77 c48 147 61
272 46 414 -57 518 -508 905 -1022 876 -48 -3 -86 -2 -83 2 8 12 -450 460
-471 460 -12 0 -239 -220 -629 -610z m808 242 l138 -138 -43 -13 c-62 -18
-198 -92 -265 -144 -57 -44 -136 -123 -181 -181 l-23 -30 -104 104 -105 105
217 217 c120 120 220 218 223 218 3 0 67 -62 143 -138z m602 -211 c376 -77
649 -377 696 -764 15 -123 1 -255 -41 -378 -17 -48 -30 -95 -30 -106 0 -10 22
-126 50 -256 27 -130 50 -241 50 -246 0 -4 -100 20 -222 55 -123 35 -230 64
-239 64 -9 0 -46 -14 -83 -30 -167 -76 -381 -95 -563 -51 -92 23 -93 23 -85
49 4 15 7 83 6 152 0 146 -17 223 -74 348 l-39 82 491 0 c443 0 493 2 510 17
22 20 23 41 1 65 -15 17 -45 18 -548 18 l-533 0 -16 25 c-30 46 -169 148 -262
192 -50 24 -96 43 -102 43 -15 0 -7 45 28 147 101 301 370 529 687 583 86 14
224 10 318 -9z m-1166 -305 l113 -114 -27 -68 c-15 -37 -35 -98 -44 -135 l-16
-68 -95 6 c-111 6 -210 -7 -322 -44 l-79 -26 -50 49 c-27 26 -49 53 -49 59 0
10 440 455 450 455 3 0 56 -51 119 -114z m86 -506 c197 -62 349 -187 439 -360
170 -326 77 -724 -221 -936 -127 -91 -265 -134 -430 -134 -114 0 -201 18 -294
61 l-67 31 -192 -55 -192 -55 4 27 c3 14 22 110 44 212 l38 187 -22 63 c-34
99 -43 155 -43 261 1 346 235 636 577 712 97 22 266 15 359 -14z m1567 -983
c155 -45 213 -66 203 -72 -12 -8 -7 -51 31 -264 25 -139 44 -255 42 -256 -3
-3 -1282 -230 -1336 -237 -20 -3 -43 24 -162 191 l-138 195 67 46 c118 84 236
229 284 353 16 42 26 56 37 51 75 -29 196 -47 315 -46 142 0 266 25 375 75 30
14 57 26 60 26 3 1 103 -27 222 -62z"/>
<path d="M2416 3234 c-20 -20 -20 -48 0 -68 14 -14 80 -16 583 -16 537 0 569
1 584 18 22 24 21 45 -1 65 -17 15 -72 17 -585 17 -501 0 -567 -2 -581 -16z"/>
<path d="M2416 2934 c-20 -20 -20 -48 0 -68 14 -14 80 -16 583 -16 537 0 569
1 584 18 22 24 21 45 -1 65 -17 15 -72 17 -585 17 -501 0 -567 -2 -581 -16z"/>
<path d="M2798 2339 c-25 -14 -24 -65 1 -79 11 -5 80 -10 154 -10 117 0 136 2
150 18 22 24 21 45 -1 65 -15 14 -42 17 -153 17 -74 0 -142 -5 -151 -11z"/>
<path d="M1416 2434 c-9 -8 -16 -24 -16 -34 0 -10 7 -26 16 -34 14 -14 71 -16
483 -16 441 0 469 1 484 18 22 24 21 45 -1 65 -17 15 -65 17 -485 17 -410 0
-467 -2 -481 -16z"/>
<path d="M1416 2134 c-9 -8 -16 -24 -16 -34 0 -10 7 -26 16 -34 14 -14 71 -16
483 -16 441 0 469 1 484 18 22 24 21 45 -1 65 -17 15 -65 17 -485 17 -410 0
-467 -2 -481 -16z"/>
<path d="M1418 1839 c-22 -12 -23 -52 -2 -73 13 -14 49 -16 233 -16 198 0 219
2 234 18 22 24 21 45 -1 65 -16 15 -47 17 -233 17 -127 0 -221 -5 -231 -11z"/>
</g>
</svg>
