<svg width="500" height="500" viewBox="0 0 500 500" fill="none" xmlns="http://www.w3.org/2000/svg">
<path d="M250 0C112.047 0 0 112.047 0 250C0 387.953 112.047 500 250 500C387.953 500 500 387.953 500 250C500 112.047 387.953 0 250 0ZM250 20C377.144 20 480 122.856 480 250C480 377.144 377.144 480 250 480C122.856 480 20 377.144 20 250C20 122.856 122.856 20 250 20ZM250 50C139.661 50 50 139.661 50 250C50 294.786 64.7574 336.243 89.668 369.59C90.4541 370.643 91.4399 371.53 92.5692 372.202C93.6984 372.874 94.9489 373.317 96.2492 373.506C97.5496 373.694 98.8744 373.625 100.148 373.302C101.422 372.978 102.619 372.407 103.672 371.621C104.725 370.835 105.612 369.849 106.284 368.72C106.956 367.591 107.399 366.34 107.588 365.04C107.776 363.739 107.707 362.415 107.384 361.141C107.06 359.867 106.489 358.67 105.703 357.617C83.2747 327.593 70 290.399 70 250C70 150.47 150.47 70 250 70C349.53 70 430 150.47 430 250C430 349.53 349.53 430 250 430C220.968 430 193.612 423.154 169.355 410.977C168.182 410.386 166.904 410.033 165.594 409.937C164.284 409.84 162.967 410.003 161.72 410.416C160.473 410.828 159.319 411.482 158.325 412.341C157.331 413.199 156.515 414.245 155.925 415.419C155.335 416.592 154.982 417.871 154.886 419.181C154.791 420.491 154.954 421.807 155.367 423.054C155.779 424.301 156.434 425.455 157.293 426.449C158.151 427.443 159.197 428.258 160.371 428.848C187.333 442.384 217.815 450 250 450C360.339 450 450 360.339 450 250C450 139.661 360.339 50 250 50ZM398.789 283.965C397.724 284.031 396.707 284.436 395.888 285.121C395.069 285.806 394.491 286.736 394.239 287.773C386.937 315.654 371.683 340.892 350.293 360.332C349.785 360.767 349.37 361.3 349.071 361.898C348.772 362.497 348.597 363.149 348.555 363.816C348.513 364.484 348.605 365.153 348.826 365.784C349.048 366.415 349.393 366.996 349.843 367.491C350.292 367.986 350.837 368.386 351.443 368.668C352.05 368.949 352.707 369.105 353.376 369.128C354.044 369.151 354.711 369.039 355.335 368.8C355.96 368.56 356.53 368.198 357.012 367.734C379.839 346.988 396.134 320.065 403.926 290.312C404.13 289.584 404.167 288.819 404.033 288.075C403.898 287.331 403.597 286.627 403.152 286.016C402.706 285.405 402.128 284.902 401.46 284.547C400.792 284.192 400.053 283.993 399.297 283.965C399.128 283.956 398.959 283.956 398.789 283.965ZM333.574 374.414C332.621 374.433 331.692 374.725 330.899 375.254C328.825 376.592 326.703 377.879 324.551 379.121C323.401 379.784 322.562 380.877 322.217 382.159C321.873 383.441 322.052 384.807 322.715 385.957C323.378 387.107 324.471 387.947 325.753 388.291C327.035 388.635 328.401 388.456 329.551 387.793C331.846 386.468 334.097 385.08 336.309 383.652C337.235 383.073 337.945 382.206 338.332 381.184C338.719 380.163 338.76 379.042 338.45 377.995C338.14 376.947 337.496 376.03 336.615 375.384C335.735 374.737 334.667 374.396 333.574 374.414ZM125.235 383.008C123.161 382.941 121.118 383.521 119.389 384.667C117.66 385.813 116.33 387.468 115.583 389.404C114.836 391.339 114.71 393.459 115.221 395.47C115.733 397.48 116.857 399.282 118.438 400.625C121.007 402.871 123.626 405.054 126.309 407.168C127.337 408.012 128.523 408.642 129.797 409.022C131.072 409.403 132.409 409.525 133.731 409.382C135.053 409.238 136.334 408.833 137.498 408.189C138.661 407.545 139.685 406.676 140.508 405.631C141.332 404.587 141.939 403.389 142.294 402.107C142.648 400.825 142.744 399.486 142.575 398.167C142.406 396.847 141.975 395.575 141.308 394.424C140.642 393.274 139.752 392.268 138.692 391.465C136.276 389.561 133.915 387.589 131.602 385.566C129.848 383.989 127.592 383.083 125.235 383.008Z" fill="#191970"/>
<path d="M162.8 154H184.1L190.6 187.4L211.4 154H232.6L217.5 225H198L205.9 187.6L190.1 213.9H179.8L175.2 187.6L167.2 225H147.7L162.8 154Z" fill="#191970"/>
<path d="M221.5 273.3H197.7L201.3 256.3L239.7 215.9H252.7L244.1 256.3H252.5L248.9 273.3H240.5L237.9 285.7H218.9L221.5 273.3ZM227.3 256.3L229.9 244.3L220 256.3H227.3Z" fill="#191970"/>
<path d="M264.8 260H286.1L292.6 293.4L313.4 260H334.6L319.5 331H300L307.9 293.6L292.1 319.9H281.8L277.2 293.6L269.2 331H249.7L264.8 260Z" fill="#191970"/>
</svg>
