<svg width="1000" height="1000" viewBox="0 0 1000 1000" fill="none" xmlns="http://www.w3.org/2000/svg">
<path d="M500 0C224.095 0 0 224.095 0 500C0 775.905 224.095 1000 500 1000C775.905 1000 1000 775.905 1000 500C1000 224.095 775.905 0 500 0ZM500 40C754.288 40 960 245.712 960 500C960 754.288 754.288 960 500 960C245.712 960 40 754.288 40 500C40 245.712 245.712 40 500 40ZM500 100C279.323 100 100 279.323 100 500C100 589.572 129.515 672.485 179.336 739.18C180.908 741.285 182.88 743.061 185.138 744.405C187.397 745.748 189.898 746.634 192.498 747.011C195.099 747.389 197.749 747.25 200.296 746.603C202.843 745.957 205.238 744.814 207.344 743.242C209.449 741.67 211.225 739.698 212.569 737.44C213.912 735.181 214.798 732.68 215.176 730.08C215.553 727.479 215.414 724.829 214.767 722.282C214.121 719.735 212.978 717.34 211.406 715.234C166.549 655.186 140 580.797 140 500C140 300.941 300.941 140 500 140C699.059 140 860 300.941 860 500C860 699.059 699.059 860 500 860C441.937 860 387.224 846.309 338.711 821.953C336.364 820.773 333.808 820.066 331.187 819.873C328.567 819.681 325.935 820.006 323.441 820.831C320.946 821.656 318.639 822.965 316.65 824.682C314.662 826.399 313.031 828.49 311.851 830.838C310.671 833.185 309.965 835.742 309.773 838.362C309.581 840.982 309.907 843.614 310.733 846.108C311.559 848.602 312.868 850.909 314.585 852.897C316.302 854.886 318.395 856.516 320.742 857.695C374.666 884.768 435.631 900 500 900C720.677 900 900 720.677 900 500C900 279.323 720.677 100 500 100ZM797.579 567.93C795.447 568.061 793.414 568.872 791.776 570.242C790.138 571.613 788.982 573.472 788.477 575.547C773.873 631.307 743.366 681.784 700.586 720.664C699.57 721.534 698.739 722.599 698.142 723.796C697.545 724.993 697.194 726.298 697.11 727.633C697.026 728.968 697.21 730.306 697.653 731.568C698.095 732.831 698.787 733.992 699.686 734.982C700.585 735.973 701.673 736.773 702.887 737.335C704.101 737.897 705.415 738.211 706.752 738.256C708.089 738.301 709.421 738.078 710.67 737.599C711.919 737.121 713.06 736.396 714.024 735.469C759.678 693.976 792.267 640.13 807.852 580.625C808.261 579.169 808.333 577.639 808.065 576.15C807.797 574.661 807.195 573.253 806.303 572.031C805.412 570.809 804.255 569.805 802.92 569.094C801.585 568.384 800.106 567.986 798.594 567.93C798.256 567.912 797.917 567.912 797.579 567.93ZM667.149 748.828C665.241 748.866 663.384 749.449 661.797 750.508C657.651 753.185 653.405 755.758 649.102 758.243C646.802 759.569 645.123 761.754 644.435 764.318C643.746 766.882 644.104 769.614 645.43 771.914C646.756 774.214 648.942 775.893 651.506 776.582C654.07 777.27 656.802 776.912 659.102 775.586C663.692 772.936 668.194 770.161 672.618 767.305C674.469 766.146 675.891 764.412 676.664 762.368C677.437 760.325 677.52 758.085 676.9 755.99C676.28 753.895 674.991 752.061 673.23 750.767C671.469 749.474 669.333 748.793 667.149 748.828ZM250.469 766.016C246.322 765.882 242.237 767.042 238.778 769.334C235.319 771.626 232.659 774.937 231.166 778.807C229.672 782.678 229.419 786.918 230.442 790.939C231.465 794.96 233.714 798.563 236.875 801.25C242.014 805.742 247.252 810.108 252.618 814.336C254.673 816.024 257.045 817.285 259.594 818.045C262.143 818.805 264.818 819.049 267.463 818.763C270.107 818.477 272.668 817.666 274.995 816.378C277.322 815.09 279.37 813.351 281.017 811.262C282.664 809.174 283.877 806.778 284.587 804.214C285.297 801.651 285.488 798.971 285.15 796.333C284.812 793.695 283.95 791.15 282.617 788.849C281.283 786.547 279.504 784.535 277.383 782.93C272.552 779.122 267.831 775.178 263.204 771.133C259.695 767.979 255.185 766.166 250.469 766.016Z" fill="#111111"/>
</svg>
