<svg id="visual" viewBox="0 0 960 540" width="960" height="540" xmlns="http://www.w3.org/2000/svg" xmlns:xlink="http://www.w3.org/1999/xlink" version="1.1"><path d="M0 493L10.7 493C21.3 493 42.7 493 64 493.3C85.3 493.7 106.7 494.3 128 489.5C149.3 484.7 170.7 474.3 192 468.3C213.3 462.3 234.7 460.7 256 466.8C277.3 473 298.7 487 320 488.2C341.3 489.3 362.7 477.7 384 472.2C405.3 466.7 426.7 467.3 448 474.2C469.3 481 490.7 494 512 497C533.3 500 554.7 493 576 485.7C597.3 478.3 618.7 470.7 640 474.2C661.3 477.7 682.7 492.3 704 494.7C725.3 497 746.7 487 768 479C789.3 471 810.7 465 832 466.7C853.3 468.3 874.7 477.7 896 481.3C917.3 485 938.7 483 949.3 482L960 481L960 541L949.3 541C938.7 541 917.3 541 896 541C874.7 541 853.3 541 832 541C810.7 541 789.3 541 768 541C746.7 541 725.3 541 704 541C682.7 541 661.3 541 640 541C618.7 541 597.3 541 576 541C554.7 541 533.3 541 512 541C490.7 541 469.3 541 448 541C426.7 541 405.3 541 384 541C362.7 541 341.3 541 320 541C298.7 541 277.3 541 256 541C234.7 541 213.3 541 192 541C170.7 541 149.3 541 128 541C106.7 541 85.3 541 64 541C42.7 541 21.3 541 10.7 541L0 541Z" fill="#191970" stroke-linecap="round" stroke-linejoin="miter"></path></svg>